<svg id="Layer_1" data-name="Layer 1" xmlns="http://www.w3.org/2000/svg" viewBox="0 0 126 126"><defs><style>.cls-1{fill:#fff;}</style></defs><title>Architect-Design</title><path class="cls-1" d="M55.14,99.15,42.65,66.68h8.73a.94.94,0,0,0,0-1.88H41.91l-4.38-11.4a15.91,15.91,0,0,0-6.79-29.8V13.22a.94.94,0,0,0-1.88,0V23.61a15.91,15.91,0,0,0-6.73,29.84L17.75,64.81H7.53a.94.94,0,1,0-.17,1.88H17L4.54,99.15a.92.92,0,0,0,0,.63L8.28,111a.94.94,0,0,0,1.82-.14l1.83-11.12L23.85,66.63h5v2.86a.94.94,0,0,0,1.88,0V66.68h5.09l11.86,33,1.88,11.25a.94.94,0,0,0,.85.74h.07a.94.94,0,0,0,.89-.65l3.77-11.2A1,1,0,0,0,55.14,99.15ZM30.75,64.81V62a.94.94,0,1,0-1.88,0v2.81H24.55L28,55.31a14.29,14.29,0,0,0,3.77,0l3.38,9.5Zm20,42.07L49.5,99.15,33.19,53.92a.93.93,0,0,0-.88-.62h-.15a13,13,0,0,1-4.7,0,.93.93,0,0,0-1,.61L10.1,99.29l-1.25,7.53L6.4,99.46,24.16,53.29a.94.94,0,0,0-.47-1.18,14.09,14.09,0,1,1,12.23,0,.93.93,0,0,0-.46,1.18l17.8,46.21Z"/><path class="cls-1" d="M38.23,39.5a8.44,8.44,0,1,0-8.45,8.43h0A8.45,8.45,0,0,0,38.23,39.5Zm-8.44,6.56a6.56,6.56,0,1,1,6.56-6.56h0A6.56,6.56,0,0,1,29.79,46.06Z"/><path class="cls-1" d="M80.72,110.12v-2.6a38.8,38.8,0,0,0,36.14-27.28V99.79a.56.56,0,0,0,0,.12,3.45,3.45,0,1,0,1.67,0,.56.56,0,0,0,0-.12V69.68h2.61a.86.86,0,0,0,.86-.86h0V61.93a.86.86,0,0,0-.86-.86h-2.58V30.93a.62.62,0,0,0,0-.11,3.45,3.45,0,1,0-1.67,0,.62.62,0,0,0,0,.11V50.51A38.78,38.78,0,0,0,80.75,23.23v-2.6a.86.86,0,0,0-.86-.86H73a.86.86,0,0,0-.86.86v6.88a.86.86,0,0,0,.86.86h6.88a.86.86,0,0,0,.86-.86V25a37,37,0,0,1,36.11,36.1h-2.54a.86.86,0,0,0-.86.86v6.88a.86.86,0,0,0,.85.87h2.55a37,37,0,0,1-36.11,36.1v-2.54a.86.86,0,0,0-.85-.87H73a.86.86,0,0,0-.86.86h0v6.88A.86.86,0,0,0,73,111h6.88a.86.86,0,0,0,.83-.89ZM73.84,26.65V21.46H79v5.19Zm41.3,41.3V62.76h5.19v5.19Zm-41.3,41.31v-5.19H79v5.19Z"/></svg>