<?xml version="1.0" encoding="utf-8"?>
<!-- Generator: Adobe Illustrator 21.1.0, SVG Export Plug-In . SVG Version: 6.00 Build 0)  -->
<svg version="1.1" id="Layer_1" xmlns="http://www.w3.org/2000/svg" xmlns:xlink="http://www.w3.org/1999/xlink" x="0px" y="0px"
	 viewBox="0 0 126 126" style="enable-background:new 0 0 126 126;" xml:space="preserve">
<style type="text/css">
	.st0{fill:#FFFFFF;}
	.st1{fill:none;stroke:#FFFFFF;stroke-width:2;stroke-linecap:round;stroke-linejoin:round;stroke-miterlimit:10;}
</style>
<title>GreenConsulting</title>
<g>
	<g>
		<g>
			<path class="st0" d="M63,5.1c4.9,1.6,32,12.1,30.2,48.4l0,0l0,0c0,0.3-0.4,26.8-30.2,38.3c-12.4-4.8-21.3-12.6-26.3-23.3
				c-3.8-8.1-3.9-14.9-3.9-15l0,0l0,0C31,17.3,58.1,6.7,63,5.1 M63.1,3C63.1,3,63.1,3,63.1,3c0,0,0,0-0.1,0c-0.1,0-0.1,0-0.1,0
				c0,0,0,0,0,0.1c-3,0.9-34,11.2-32.1,50.6c0,0,0,28.3,32.1,40.4c0,0.1,0,0.1,0,0.1c0,0,0.1,0,0.1-0.1c0,0,0.1,0,0.1,0.1
				c0,0,0,0,0-0.1C95.2,82,95.2,53.7,95.2,53.7C97.1,14.3,66.1,4,63.1,3C63.1,3,63.1,3,63.1,3L63.1,3z M62.9,3C62.9,3,62.9,3,62.9,3
				C62.9,3,62.9,3,62.9,3L62.9,3z"/>
		</g>
		<line class="st1" x1="63" y1="22.5" x2="63" y2="123"/>
		<polyline class="st1" points="45,37.6 63.1,56 81.7,37.8 		"/>
		<polyline class="st1" points="45,58.4 63.1,76.8 81.7,58.6 		"/>
	</g>
</g>
</svg>
